{"title":"Lord Of War(2005)MPEG-4[DaScubaDude]","uid":14724198,"size":1332998588,"categoryP":"video","categoryS":"movies","magnet":"?xt=urn:btih:d0a0705fd5d293138e538fab81560aff2081018e&amp;dn=Lord+Of+War%282005%29MPEG-4%5BDaScubaDude%5D&amp;tr=udp%3A%2F%2Ftracker.leechers-paradise.org%3A6969&amp;tr=udp%3A%2F%2Fzer0day.ch%3A1337&amp;tr=udp%3A%2F%2Fopen.demonii.com%3A1337&amp;tr=udp%3A%2F%2Ftracker.coppersurfer.tk%3A6969&amp;tr=udp%3A%2F%2Fexodus.desync.com%3A6969","seeders":0,"leechers":0,"uploader":"dascuba","files":1,"time":1464545687,"description":"Lord of War (2005)\r\nR | 2h 2min | Crime, Drama, Thriller | 16 September 2005 (USA)\r\nAn arms dealer confronts the morality of his work as he is being chased by an Interpol agent.\r\nDirector: Andrew Niccol\r\nWriter: Andrew Niccol\r\nStars: Nicolas Cage, Ethan Hawke, Jared Leto |\r\n\r\nGeneral\r\nComplete name                            : LordofWarLORD_OF_WAR_WS_Title1.mp4\r\nFormat                                   : MPEG-4\r\nFormat profile                           : Base Media\r\nCodec ID                                 : isom (isom/iso2/avc1/mp41)\r\nFile size                                : 1.24 GiB\r\nDuration                                 : 2h 1mn\r\nOverall bit rate                         : 1 461 Kbps\r\nMovie name                               : LORD_OF_WAR_WS\r\nGenre                                    : Crime\r\nWriting application                      : Lavf54.6.100\r\n\r\nVideo\r\nID                                       : 1\r\nFormat                                   : AVC\r\nFormat/Info                              : Advanced Video Codec\r\nFormat profile                           :   \r\nFormat settings, CABAC                   : No\r\nFormat settings, ReFrames                : 6 frames\r\nCodec ID                                 : avc1\r\nCodec ID/Info                            : Advanced Video Coding\r\nDuration                                 : 2h 1mn\r\nBit rate                                 : 1 200 Kbps\r\nWidth                                    : 720 pixels\r\nHeight                                   : 404 pixels\r\nDisplay aspect ratio                     : 16:9\r\nFrame rate mode                          : Constant\r\nFrame rate                               : 29.970 (30000/1001) fps\r\nColor space                              : YUV\r\nChroma subsampling                       : 4:2:0\r\nBit depth                                : 8 bits\r\nScan type                                : Progressive\r\nBits/(Pixel*Frame)                       : 0.138\r\nStream size                              : 1.02 GiB (82%)\r\n\r\nAudio\r\nID                                       : 2\r\nFormat                                   : AAC\r\nFormat/Info                              : Advanced Audio Codec\r\nFormat profile                           : LC\r\nCodec ID                                 : 40\r\nDuration                                 : 2h 1mn\r\nBit rate mode                            : Constant\r\nBit rate                                 : 254 Kbps\r\nChannel(s)                               : 2 channels\r\nChannel(s)_Original                      : 6 channels\r\nChannel positions                        : Front: L C R, Side: L R, LFE\r\nSampling rate                            : 44.1 KHz\r\nFrame rate                               : 43.066 fps (1024 spf)\r\nCompression mode                         : Lossy\r\nStream size                              : 221 MiB (17%)\r\nDefault                                  : Yes\r\nAlternate group                          : 1","torrent":{"xt":"urn:btih:d0a0705fd5d293138e538fab81560aff2081018e","amp;dn":"Lord+Of+War%282005%29MPEG-4%5BDaScubaDude%5D","amp;tr":["udp%3A%2F%2Ftracker.leechers-paradise.org%3A6969","udp%3A%2F%2Fzer0day.ch%3A1337","udp%3A%2F%2Fopen.demonii.com%3A1337","udp%3A%2F%2Ftracker.coppersurfer.tk%3A6969","udp%3A%2F%2Fexodus.desync.com%3A6969"],"infoHash":"d0a0705fd5d293138e538fab81560aff2081018e","infoHashBuffer":{"type":"Buffer","data":[208,160,112,95,213,210,147,19,142,83,143,171,129,86,10,255,32,129,1,142]},"announce":[],"urlList":[]}}